<svg xmlns="http://www.w3.org/2000/svg" viewBox="0 0 104 64" width="100" height="32">
  <path d="M104 50.15V56H0V8h104v5.85H97.2V14h6.8v5.85H97.2V20h6.8v5.85H97.2V26h6.8v5.85H97.2V32h6.8v5.85H97.2V38h6.8v5.85H97.2V44h6.8v6.15z" fill="#016fd0"/>
  <path d="M58.64 30.82l3.1-7.42h10.5v14.14h-6.16v-9.7l-3.84 9.7h-6.8l-3.84-9.7v9.7h-8.9l-1.68-4.12h-9.1l-1.7 4.12h-6.5l7.8-18.56h9.12l7.42 17.86v-17.86h10.04l6.54 14.84zm-27.46-8.12l-3.6 8.7h7.2l-3.6-8.7z" fill="#fff"/>
  <path d="M95.2 37.54h-9.5V23.4h9.5c2.1 0 3.7 1.4 3.7 3.36 0 1.4-.84 2.66-2.1 3.08 1.26.42 2.1 1.68 2.1 3.36 0 1.96-1.6 3.36-3.7 3.36zm-3.36-10.5v2.52h3.36c.7 0 1.26-.56 1.26-1.26s-.56-1.26-1.26-1.26h-3.36zm0 6.16v2.52h3.36c.7 0 1.26-.56 1.26-1.26s-.56-1.26-1.26-1.26h-3.36zm-11.2-6.16v2.52h3.36c.7 0 1.26-.56 1.26-1.26s-.56-1.26-1.26-1.26h-3.36zm0 6.16v2.52h3.36c.7 0 1.26-.56 1.26-1.26s-.56-1.26-1.26-1.26h-3.36z" fill="#016fd0"/>
</svg> 