<svg xmlns="http://www.w3.org/2000/svg" viewBox="0 0 1000.046 323.653" width="100" height="32">
  <path fill="#00579f" d="M433.395 318.628h-96.799l60.593-284.398h96.798z"/>
  <path fill="#00579f" d="M333.465 318.628H233.941l-51.391-196.525c-3.123-9.906-11.697-16.204-21.826-18.604-36.566-8.898-76.574-17.299-119.273-25.071l2.148-10.179h180.016c22.815.532 40.826 7.555 45.654 30.65l41.196 219.729z"/>
  <path d="M143.861 131.612c-2.648-9.66-11.149-16.259-22.324-16.259-52.497 0-91.74 39.346-91.74 94.217 0 41.233 26.338 64.607 65.178 64.607 17.616 0 32.515-3.499 43.9-9.172l-7.38-31.828c-10.269 3.498-17.109 5.248-30.285 5.248-20.065 0-38.735-14.788-38.735-45.3-.532-18.08 12.19-52.497 38.209-52.497 7.555 0 14.257 1.531 19.533 4.18l13.644-13.196z" fill="#faa61a"/>
  <path fill="#faa61a" d="M727.819 221.76c16.259-9.172 25.071-19.533 25.071-34.321 0-13.644-8.898-20.597-27.778-20.597-15.727 0-27.251 3.123-41.765 9.172l-7.555-30.818c14.788-5.249 39.859-9.66 62.683-9.66 45.3 0 73.078 16.79 73.078 48.423 0 22.324-13.644 39.346-40.895 51.004v.532c26.338 6.023 55.62 20.597 55.62 52.497 0 39.859-39.346 61.125-99.416 61.125-23.387 0-45.3-4.18-56.152-8.898l7.023-32.515c11.697 4.718 29.845 9.172 48.423 9.172 29.845 0 46.104-9.66 46.104-27.251 0-18.604-17.616-28.264-54.182-28.264h-16.79l6.531-39.601z"/>
  <path fill="#faa61a" d="M913.764 152.209c-22.856 0-39.859 7.023-50.472 12.19l-8.898-31.35c11.149-5.249 31.882-12.19 59.56-12.19 40.051 0 66.389 14.257 66.389 56.152 0 21.826-7.555 40.895-18.604 53.085-15.727 17.616-40.895 26.87-73.451 26.87-16.79 0-31.35-1.531-40.051-4.718l-.532-158.19 96.798-21.826v33.789c0 21.826-.532 45.3-2.648 64.607h1.531c8.898-14.257 24.539-18.604 42.155-18.604 16.79 0 31.35 4.718 31.35 4.718l-8.898 33.789c-5.781-2.117-15.195-4.718-27.778-4.718-22.856 0-39.346 14.257-39.346 42.687 0 16.79 8.366 27.251 20.065 27.251 16.79 0 27.778-17.616 27.778-39.346l8.366 47.432c-8.366 4.718-20.597 7.555-33.789 7.555-28.264 0-44.573-17.616-44.573-45.3 0-36.566 25.603-73.61 69.512-73.61 40.895 0 60.428 24.539 60.428 62.683 0 50.472-33.789 83.519-87.938 83.519-17.616 0-33.257-3.123-41.765-6.023l7.023-30.818c8.366 2.648 19.533 4.718 30.818 4.718 26.87 0 41.765-15.727 41.765-36.566 0-15.195-8.366-25.603-24.539-25.603-19.533 0-33.257 17.616-33.257 39.346l-7.555-47.432c8.366-4.718 20.597-7.555 33.789-7.555 28.796 0 44.573 17.616 44.573 45.3 0 36.566-25.603 73.61-69.512 73.61-40.895 0-60.428-24.539-60.428-62.683 0-50.472 33.789-83.519 87.938-83.519 18.604 0 34.321 3.123 42.687 6.023l-6.531 30.818c-8.366-2.648-19.533-4.718-30.818-4.718z"/>
</svg> 